<svg xmlns="http://www.w3.org/2000/svg" version="1.1" xmlns:xlink="http://www.w3.org/1999/xlink" xmlns:svgjs="http://svgjs.dev/svgjs" width="1440" height="800" preserveAspectRatio="none" viewBox="0 0 1440 800"><g mask="url(&quot;#SvgjsMask1183&quot;)" fill="none"><rect width="1440" height="800" x="0" y="0" fill="rgba(255, 255, 255, 1)"></rect><path d="M1536 800L0 800 L0 585.85Q-40.18 473.67, 72 433.48Q158.88 400.37, 192 487.25Q237.61 412.86, 312 458.46Q328.21 402.67, 384 418.89Q430.29 393.18, 456 439.47Q497.17 360.64, 576 401.81Q619.34 373.14, 648 416.48Q726.51 423, 720 501.51Q816.54 478.05, 840 574.58Q850.85 513.43, 912 524.28Q947.63 439.91, 1032 475.54Q1123.54 447.08, 1152 538.61Q1235.81 502.42, 1272 586.23Q1291.39 533.63, 1344 553.02Q1387.63 524.65, 1416 568.29Q1458.19 490.48, 1536 532.67z" fill="rgba(187, 247, 208, 1)"></path><path d="M1560 800L0 800 L0 583.86Q63.55 527.41, 120 590.96Q182.48 581.44, 192 643.93Q264.35 596.28, 312 668.63Q320.82 557.45, 432 566.28Q476.6 490.88, 552 535.48Q645.92 509.4, 672 603.32Q758.13 569.45, 792 655.58Q793.34 584.92, 864 586.26Q917.39 519.65, 984 573.04Q1013.07 530.11, 1056 559.18Q1163.84 547.01, 1176 654.85Q1224.09 630.94, 1248 679.03Q1249.09 608.12, 1320 609.21Q1372.75 541.97, 1440 594.72Q1486.63 521.35, 1560 567.97z" fill="rgba(209, 250, 229, 1)"></path><path d="M1536 800L0 800 L0 819.77Q43.23 743, 120 786.22Q137.05 731.27, 192 748.32Q230.95 667.27, 312 706.22Q360.33 682.55, 384 730.88Q468.64 695.52, 504 780.16Q507 711.15, 576 714.15Q600.88 667.02, 648 691.9Q675.75 647.64, 720 675.39Q779.32 662.71, 792 722.03Q913.94 723.97, 912 845.92Q899.77 761.69, 984 749.46Q1007.33 652.79, 1104 676.12Q1150.2 650.32, 1176 696.51Q1312.18 712.69, 1296 848.88Q1273.05 705.93, 1416 682.98Q1469.52 616.5, 1536 670.02z" fill="rgba(255, 255, 255, 1)"></path></g><defs><mask id="SvgjsMask1183"><rect width="1440" height="800" fill="#ffffff"></rect></mask></defs></svg>